<svg width="407.34" height="160.81" xmlns="http://www.w3.org/2000/svg" data-name="Layer 1">
 <title>PoweredByRectangle_Blue</title>

 <g>
  <title>Layer 1</title>
  <polygon id="svg_1" fill="#01d277" points="50.38 102.47 57.32 102.47 57.32 74.71 65.96 74.71 65.96 67.82 41.74 67.82 41.74 74.71 50.38 74.71 50.38 102.47" class="cls-1"/>
  <polygon id="svg_2" fill="#01d277" points="88.53 102.47 95.47 102.47 95.47 67.77 88.53 67.77 88.53 81.65 78.14 81.65 78.14 67.77 71.2 67.77 71.2 102.47 78.14 102.47 78.14 88.59 88.53 88.59 88.53 102.47" class="cls-1"/>
  <polygon stroke="null" id="svg_3" fill="#01d277" points="121.25 95.53 108.23 95.53 108.23 88.59 119.35 88.59 119.35 81.65 108.23 81.65 108.23 74.71 120.66 74.71 120.66 67.77 101.28 67.77 101.28 102.47 121.25 102.47 121.25 95.53" class="cls-1"/>
  <polygon stroke="null" id="svg_4" fill="#01d277" points="157.79 82.54 144.1 67.3 141.87 67.3 141.87 102.54 148.9 102.54 148.9 83.17 157.79 92.49 166.67 83.17 166.62 102.54 173.66 102.54 173.66 67.3 171.47 67.3 157.79 82.54" class="cls-1"/>
  <path id="svg_5" fill="#01d277" d="m197.17007,67.24995c-23.88,0 -23.88,35.77 0,35.77s23.9,-35.77 0,-35.77zm0,28.59c-13.88,0 -13.88,-21.45 0,-21.45s13.9,21.45 0,21.45z" class="cls-1"/>
  <rect id="svg_6" fill="#01d277" height="34.7" width="6.94" y="67.83" x="254.5" class="cls-1"/>
  <polygon id="svg_7" fill="#01d277" points="274.19 95.6 274.19 88.66 285.32 88.66 285.32 81.72 274.19 81.72 274.19 74.78 286.63 74.78 286.63 67.83 267.25 67.83 267.25 102.54 287.21 102.54 287.21 95.6 274.19 95.6" class="cls-1"/>
  <path id="svg_8" fill="#01d277" d="m317.55007,68.22995l-10.34,0l0,34.7l10.34,0c23.1,0 23.1,-34.7 0,-34.7zm0,27.76l-3.4,0l0,-20.82l3.4,0c13.52,0 13.52,20.82 0,20.82z" class="cls-1"/>
  <path id="svg_9" fill="#01d277" d="m360.77007,85.54995c2.18,-1.5 3.11,-4.22 3.2,-6.84c0.15,-6.12 -3.69,-10.53 -9.85,-10.53l-13.74,0l0,34.75l13.69,0a10.32,10.32 0 0 0 10.24,-10.44a8.43,8.43 0 0 0 -3.54,-6.94zm-13.4,-10.44l6.17,0a3.51,3.51 0 0 1 0,7l-6.17,0l0,-7zm6.17,20.87l-6.17,0l0,-6.94l6.17,0a3.41,3.41 0 0 1 3.49,3.45a3.45,3.45 0 0 1 -3.49,3.5l0,-0.01z" class="cls-1"/>
  <polygon id="svg_10" fill="#01d277" points="233.13 86.57 224 67.83 215.99 67.83 232.36 103.27 233.91 103.27 250.28 67.83 242.27 67.83 233.13 86.57" class="cls-1"/>
  <path id="svg_11" fill="#01d277" d="m382.85007,146.24995c14.6,0 24.48,-9.88 24.48,-24.48l0,-97.28c0,-14.6 -9.88,-24.48 -24.48,-24.48l-358.37,0c-14.6,0 -24.48,9.88 -24.48,24.48l0,136.33l12.56,-14.56l0,0l0,-121.77a11.94,11.94 0 0 1 11.92,-11.92l358.37,0a11.94,11.94 0 0 1 11.92,11.92l0,97.28a11.94,11.94 0 0 1 -11.92,11.92l-339.78,0l-12.56,12.56l-0.08,-0.1c117.47333,0.03333 234.94667,0.06667 352.42,0.1z" class="cls-1"/>
  <path id="svg_12" fill="#01d277" d="m42.37007,52.84995l0,-15l5.9,0c5.84,0 5.82,9.26 0,9.26l-2.9,0l0,5.73l-3,0l0,0.01zm5.65,-8.65c2,0 2,-3.36 0,-3.36l-2.65,0l0,3.36l2.65,0z" class="cls-1"/>
  <path id="svg_13" fill="#01d277" d="m64.14007,37.58995c10.33,0 10.33,15.47 0,15.47s-10.33,-15.47 0,-15.47zm0,3.09c-6,0 -6,9.28 0,9.28s6.01,-9.29 0,-9.29l0,0.01z" class="cls-1"/>
  <path id="svg_14" fill="#01d277" d="m81.19007,53.16995l-6.15,-15.33l3.38,0l3,7.66l2.94,-7.52l0.15,0l2.94,7.52l3,-7.66l3.38,0l-6.13,15.26l-0.55,0l-2.75,-6.66l-2.73,6.72l-0.52,0l0.04,0.01z" class="cls-1"/>
  <path id="svg_15" fill="#01d277" d="m97.60007,52.84995l0,-15l7.47,0l0,3l-4.51,0l0,3l3.95,0l0,3l-3.95,0l0,3l4.77,0l0,3l-7.77,0l0.04,0z" class="cls-1"/>
  <path id="svg_16" fill="#01d277" d="m117.54007,52.84995l-3,-5.73l-1.47,0l0,5.73l-3,0l0,-15l5.92,0c5.35,0 5.88,7.54 1.47,8.82l3.49,6.19l-3.4,0l-0.01,-0.01zm-4.47,-8.65l2.65,0c2,0 2,-3.36 0,-3.36l-2.65,0l0,3.36z" class="cls-1"/>
  <path id="svg_17" fill="#01d277" d="m124.83007,52.84995l0,-15l7.52,0l0,3l-4.51,0l0,3l3.95,0l0,3l-3.95,0l0,3l4.77,0l0,3l-7.77,0l-0.01,0z" class="cls-1"/>
  <path id="svg_18" fill="#01d277" d="m141.78007,52.84995l-4.47,0l0,-15l4.47,0c9.99,-0.01 9.99,15 0,15zm-1.47,-12l0,9l1.47,0c5.84,0 5.84,-9 0,-9l-1.47,0z" class="cls-1"/>
  <path id="svg_19" fill="#01d277" d="m179.96007,46.08995l-5.23,-8.25l3.65,0l3.07,5.17l3.07,-5.17l3.67,0l-5.25,8.25l0,6.76l-3,0l0,-6.76l0.02,0z" class="cls-1"/>
  <path id="svg_20" fill="#01d277" d="m170.65007,45.49995a3.68,3.68 0 0 0 1.39,-3a4.13,4.13 0 0 0 -4.26,-4.56l-5.94,0l0,15l5.94,0a4.46,4.46 0 0 0 4.43,-4.51a3.65,3.65 0 0 0 -1.56,-2.93zm-5.79,-4.51l2.67,0a1.52,1.52 0 0 1 0,3l-2.67,0l0,-3zm2.67,9l-2.67,0l0,-3l2.67,0a1.47,1.47 0 0 1 1.51,1.49a1.49,1.49 0 0 1 -1.52,1.54l0.01,-0.03z" class="cls-1"/>
 </g>
</svg>